<svg xmlns="http://www.w3.org/2000/svg" viewBox="0 0 100 100" fill="none" stroke="currentColor" stroke-width="2" stroke-linecap="round" stroke-linejoin="round" class="w-12 h-12"><path d="M4 19.5A2.5 2.5 0 0 1 6.5 17H20"></path><path d="M6.5 2H20v20H6.5A2.5 2.5 0 0 1 4 19.5v-15A2.5 2.5 0 0 1 6.5 2z"></path><path d="M96 19.5A2.5 2.5 0 0 0 93.5 17H80"></path><path d="M93.5 2H80v20h13.5A2.5 2.5 0 0 0 96 19.5v-15A2.5 2.5 0 0 0 93.5 2z"></path><path d="M50 20v2"></path><path d="M50 12v2"></path><path d="M50 4v2"></path><path d="M50 28v70"></path><path d="M4 19.5V80a2 2 0 0 0 2 2h38"></path><path d="M96 19.5V80a2 2 0 0 1-2 2H56"></path><polyline points="40 50 45 55 60 40"></polyline></svg>